<svg id="Layer_1" data-name="Layer 1" xmlns="http://www.w3.org/2000/svg" viewBox="0 0 1837.82 655.53"><defs><style>.cls-1{fill:#fff;}</style></defs><title>Artboard 1</title><path class="cls-1" d="M0,0H1837.82V655.53H0ZM1321.67,398.69l1.59,1.4c1.63,1.41,3.17,2.94,4.91,4.2a98,98,0,0,0,31.42,15.58,44.86,44.86,0,0,0,18,1.42A76.46,76.46,0,0,0,1405.3,412a100,100,0,0,0,26.33-21.85,141.63,141.63,0,0,0,19.1-28.49,154.61,154.61,0,0,0,9.76-23.28,108.16,108.16,0,0,0,5.36-25.54,39.51,39.51,0,0,0-.44-10.53,47.59,47.59,0,0,0-6.53-16c-6.28-10.12-14.6-18.38-23.85-25.73a132.19,132.19,0,0,0-20.66-13.46A111.38,111.38,0,0,0,1384.45,236a58.89,58.89,0,0,0-14.32-1,54.14,54.14,0,0,0-15.48,3.26c-11.12,3.88-21.08,9.84-30.43,16.92a190.25,190.25,0,0,0-31.46,30.74,234.7,234.7,0,0,0-23.57,34.37,223.34,223.34,0,0,0-20.61,48.9,9.13,9.13,0,0,1-1.7,3.36c-4.55,5.52-9,11.11-13.61,16.58-7.7,9.13-15.51,18.18-23.24,27.29-8.63,10.16-17.67,19.93-27,29.46-4.32,4.41-8.8,8.66-13.51,12.66a52.75,52.75,0,0,1-9.8,7,18.76,18.76,0,0,1-3.25,1.32c-2,.6-3.15.14-4.25-1.58a12.76,12.76,0,0,1-1.69-4.35,46.69,46.69,0,0,1-.38-13.76,155.93,155.93,0,0,1,4.79-24.79c3.37-12.78,7.44-25.36,11.88-37.82,5.73-16.06,11.77-32,18.28-47.75,6.42-15.58,13.05-31.07,19.6-46.59.22-.54.48-1.07.73-1.61a1.91,1.91,0,0,1,1.87-1.17c1.17,0,2.35,0,3.52,0,11.25-.6,22.51-1.15,33.78-1.12q13.52,0,27,.21c3.52.05,7,.33,10.57.45a14.29,14.29,0,0,0,3.2-.23,3.85,3.85,0,0,0,3.28-3.64,13.39,13.39,0,0,0-.38-5.24,59.94,59.94,0,0,0-1.9-5.87,91.17,91.17,0,0,0-13-22.59,46.81,46.81,0,0,0-9.34-9.31c-2.83-2.07-5.9-3.49-9.53-3.22a9,9,0,0,1-1.47,0,180.31,180.31,0,0,0-21.43-.39,8.22,8.22,0,0,1-1.56-.26c.25-.73.38-1.28.62-1.79,3-6.4,6-12.79,9-19.17,4.71-10,9.38-20,14.2-30q4.1-8.46,8.65-16.69a10.54,10.54,0,0,0-.58-11.88A21.46,21.46,0,0,0,1256,151a45.9,45.9,0,0,0-12.51-5.73,64.59,64.59,0,0,0-16.19-2.75,57.31,57.31,0,0,0-19.19,2.06c-5.78,1.73-4.55.93-7.63,5.68-7.31,11.25-14.61,22.51-21.8,33.84-5.66,8.94-11.27,17.91-16.69,27-7,11.77-13.84,23.67-20.7,35.54a4.72,4.72,0,0,1-3.29,2.59c-6.12,1.33-12.22,2.8-18.32,4.23-5.24,1.23-10.55,2.19-15.6,4.13-5.89,2.26-11.54,4.92-16.38,9.05a24.2,24.2,0,0,0-7.78,10.84,15.4,15.4,0,0,0,1,12.79,10.72,10.72,0,0,0,8.61,5.89c1,.1,2,.17,2.93.22a142.91,142.91,0,0,0,20-.57c.64,0,1.36-.34,2,.53-.27.64-.54,1.35-.88,2-3.78,7.53-7.65,15-11.36,22.58-6.55,13.37-12.68,26.94-18.24,40.76-2.71,6.72-5.27,13.5-7.83,20.29a13.79,13.79,0,0,1-2.71,4.48c-3,3.27-5.79,6.64-8.79,9.88-3.92,4.24-7.94,8.39-11.93,12.57-.45.47-.86,1.13-1.85.83-.3-.48-.67-1.05-1-1.64a198.11,198.11,0,0,0-11.36-18.18c-6.32-8.84-12.81-17.57-19.32-26.28-6.15-8.24-12.42-16.39-18.06-25a92,92,0,0,1-9.23-17c-.88-2.28-1.42-4.68-2.14-7a2.48,2.48,0,0,1,.54-2.45c1.11-1.37,2.11-2.83,3.23-4.19,3.78-4.63,7.65-9.18,11.36-13.86a35.7,35.7,0,0,0,3.8-5.92,15.48,15.48,0,0,0,1.23-11.4,28.48,28.48,0,0,0-7.08-12.37,57.45,57.45,0,0,0-27-15.93,34.24,34.24,0,0,0-12.49-1.42,15.21,15.21,0,0,0-8.41,3.11,68.68,68.68,0,0,0-21.35,28.3,97.75,97.75,0,0,0-5.38,18.6,13.25,13.25,0,0,1-2.33,5.63c-2.54,3.48-5,7.05-7.49,10.54q-9.48,13.08-19.73,25.59-12,14.69-24,29.35a12.08,12.08,0,0,1-4.24,3.52,28.13,28.13,0,0,0-4.46,2.82,72.67,72.67,0,0,0-12.52,12C843.77,397.79,834,409,823.8,419.86c-7.18,7.63-14.38,15.25-21.67,22.78-10.86,11.18-22.07,22-33.93,32.1-4,3.37-8.06,6.55-12.24,9.63a42.13,42.13,0,0,1-7.05,4.19c-3.84,1.8-6.19.24-6-4a35.69,35.69,0,0,1,1-7c2-8.52,5.35-16.58,8.85-24.57,5.39-12.29,11.28-24.35,17.47-36.26,10.39-20,21.25-39.73,32.76-59.11q6.17-10.35,12.56-20.56a6.17,6.17,0,0,0,.23-6.89,19.3,19.3,0,0,0-2-2.87,40.68,40.68,0,0,0-8.95-7.55,113.52,113.52,0,0,0-28.25-12.91,125.08,125.08,0,0,0-18.29-4.27,4.69,4.69,0,0,1-3.37-2A47.56,47.56,0,0,0,743.91,290,103.47,103.47,0,0,0,708,273.05a59,59,0,0,0-16-2.14c-3,.07-6.06.29-9.09.51a130,130,0,0,0-26.23,4.94,177.86,177.86,0,0,0-39.33,16.88,229.62,229.62,0,0,0-31.65,21.83,288.46,288.46,0,0,0-34.8,33.69c-7,8.05-13.74,16.33-19.94,25A302.4,302.4,0,0,0,501.7,424c-6.54,14.41-11.83,29.23-14.88,44.8-2.07,10.62-3.06,21.3-1.75,32.13a43.41,43.41,0,0,0,3.56,12.67,76.17,76.17,0,0,0,13,19.48,136.48,136.48,0,0,0,21,18.74,145.33,145.33,0,0,0,26.83,15.7,89.26,89.26,0,0,0,22.66,7.06c9.44,1.49,18.37.2,26.47-5.13a68.09,68.09,0,0,0,6.1-4.6,99.42,99.42,0,0,0,13.65-14.54,249.58,249.58,0,0,0,18.14-26.73q6.38-10.56,12.8-21.1a17.94,17.94,0,0,1,1.4-1.76,17.7,17.7,0,0,1,.8,1.79,69.07,69.07,0,0,0,4.45,11.18,87.44,87.44,0,0,0,15.64,21.56,104.85,104.85,0,0,0,25.15,19.16,9.39,9.39,0,0,0,3.32,1.37,16.31,16.31,0,0,0,1.73-1.5c3.41-3.82,7.67-6.6,11.7-9.65a33.44,33.44,0,0,1,4.44-2.79A58.21,58.21,0,0,1,732,536.34l6.51-1.49c3.12-.7,6.22-1.53,9.49-1.32.65,0,1.32-.32,2-.35,1.46-.06,2.92,0,4.37,0,.67,0,1.34.38,2,.35,3.75-.16,7.28,1,10.87,1.76,2.65.53,5.26,1.24,8,1.91,2.45-2.08,4.65-4.44,6.91-6.73s4.58-4.84,6.84-7.28,4.4-4.73,6.56-7.14,4.27-4.86,6.36-7.32,4.29-5.1,6.39-7.67,4.07-5,6.08-7.56,4.07-5.27,6.17-7.86,3.68-5.21,5.91-7.42c.28.13.42.15.44.21.22.65.45,1.29.62,1.95a109.06,109.06,0,0,0,6.61,18.2,99,99,0,0,0,19.48,27.77,101.41,101.41,0,0,0,15.56,12.94,107.22,107.22,0,0,0,18.1,9.71,93.8,93.8,0,0,0,13.64,4.58c.73.18,1.5.57,2.14.08l1.64-7.15a3.77,3.77,0,0,1,.41-1.38c1.85-2.45,3.27-5.33,6.31-6.65a2,2,0,0,0,.51-.29,7,7,0,0,1,4-1.52,7,7,0,0,0,1.44-.24,20.56,20.56,0,0,1,7.75-1c1.76.09,3.53,0,5.29,0a9.91,9.91,0,0,1,2,.15c1.61.35,3.2.74,4.79,1.17a12,12,0,0,1,3,1,16.78,16.78,0,0,1,5.5,5.14c2.71,4,5.48,8,8.25,12a13.91,13.91,0,0,0,1.55-.21c2.36-.64,4.73-1.25,7.07-2a88,88,0,0,0,11.46-4.53c.93-.44,1.69-.92,1.75-2.12a2.7,2.7,0,0,1,.63-1.28c.67-1,1.47-1.83,2.09-2.81,1.76-2.79,4.56-4.1,7.47-5.15,1.44-.51,3.1-.41,4.55-.9a7.66,7.66,0,0,1,3.15-.45A6.16,6.16,0,0,0,998,534a246,246,0,0,0,19.23-15.92,330.63,330.63,0,0,0,36.57-40.53c2.21-2.87,4.36-5.79,6.58-8.66a6,6,0,0,1,1.22-.88c.28.88.51,1.51.69,2.15.4,1.42.72,2.86,1.17,4.25a69.92,69.92,0,0,0,12.8,22.63,108.44,108.44,0,0,0,19.7,18.4,112,112,0,0,0,22.35,12.89,70.46,70.46,0,0,0,18.29,5.31,27.78,27.78,0,0,0,13.84-1.71,67.83,67.83,0,0,0,15.36-8.57,163.4,163.4,0,0,0,20-17.26A319.55,319.55,0,0,0,1209,480.35c6.21-7.7,12.37-15.45,18.33-23.34,5.15-6.79,10-13.81,15-20.72.42-.59.68-1.39,1.71-1.56.31,1,.66,1.86.91,2.79a61,61,0,0,0,4.49,11.46,92.79,92.79,0,0,0,13.32,19.3A144.83,144.83,0,0,0,1284.1,488a177.77,177.77,0,0,0,37.62,22.18,112.6,112.6,0,0,0,21.48,7,46.11,46.11,0,0,0,9.92,1.1,82.9,82.9,0,0,0,17.18-2A117.67,117.67,0,0,0,1404,502.67a197.5,197.5,0,0,0,28.22-20.08,314.44,314.44,0,0,0,32.88-32.31c5.5-6.24,10.76-12.7,16.13-19,.3-.35.5-.87,1.22-.69a3.56,3.56,0,0,1,0,.8c-.55,2.29-1.17,4.56-1.69,6.85-1.7,7.56-3,15.17-2.84,23a30.37,30.37,0,0,0,6.79,18.7,52.24,52.24,0,0,0,15.51,12.86,85.23,85.23,0,0,0,19,7.85,70.1,70.1,0,0,0,18.52,2.91,23.2,23.2,0,0,0,9.78-1.62,5.81,5.81,0,0,0,3.75-6,79.59,79.59,0,0,1,2.89-25.59,159.23,159.23,0,0,1,10.9-28.81,313.4,313.4,0,0,1,20.28-35.42c8.14-12.48,16.86-24.55,26-36.32q9.45-12.18,19.22-24.12c5.57-6.84,11.27-13.56,17-20.25,6.43-7.52,13-14.94,19.47-22.4q4.72-5.43,9.5-10.82c.25-.28.52-.93,1.18-.31l-2.07,3.88c-4,7.44-7.86,14.9-11.13,22.68a113.32,113.32,0,0,0-6.08,18.69,20.2,20.2,0,0,0,.66,11.27,44.36,44.36,0,0,0,7,12.53,93.66,93.66,0,0,0,34.65,28,50.64,50.64,0,0,0,16.55,4.88c6.61.73,12.62-.59,18-4.75a104.92,104.92,0,0,0,10.78-9.53,290.18,290.18,0,0,0,25.72-30.92q18.27-24.69,34.24-51a192.49,192.49,0,0,0,12.84-24.1c1.15-2.69,2.07-5.49,3-8.28a10.9,10.9,0,0,0,.43-3.18c0-1.33-.79-1.93-2.13-1.7a10.14,10.14,0,0,0-4.25,1.92c-2.36,1.74-4.76,3.44-7,5.33-9.29,7.85-17.94,16.38-26.58,24.92-10.72,10.62-21.37,21.3-32.14,31.86-3.84,3.77-7.89,7.33-11.93,10.9a59.3,59.3,0,0,1-5.38,4.07,9.21,9.21,0,0,1-2.38,1.1,1,1,0,0,1-1.36-1.1,6.77,6.77,0,0,1,.26-1.73,32.68,32.68,0,0,1,1.17-3.32c3.63-8.46,7.16-17,11-25.35,8-17.58,16.07-35.09,24.12-52.63a14.22,14.22,0,0,0,1.26-7.44,23.41,23.41,0,0,0-3.15-9.7,43.76,43.76,0,0,0-10.38-11.89,60.18,60.18,0,0,0-26.12-12.81,5.4,5.4,0,0,0-4.44.77c-.48.33-1,.62-1.49.94a157.9,157.9,0,0,0-14.6,10.87c-14,11.39-27.28,23.57-40.26,36.08q-17.77,17.13-34.6,35.21c-12.82,13.77-25.22,27.9-37,42.56a12.28,12.28,0,0,1-1.14,1.11c-.38-1.29.29-2.11.65-3,4.1-10,8.15-19.95,12.38-29.86,4.57-10.72,9.37-21.34,14-32.06,2.12-5,4-10,5.92-15a8.65,8.65,0,0,0-.92-8.14,32.09,32.09,0,0,0-1.81-2.67,42.65,42.65,0,0,0-9.27-8.52,82.83,82.83,0,0,0-24.63-12.22,28.27,28.27,0,0,0-10.42-1.49,5.73,5.73,0,0,0-4.87,2.79c-1.62,2.68-3.38,5.28-5,8-11,18.88-21.26,38.16-31.08,57.68-4.8,9.53-9.46,19.14-14.18,28.72a7,7,0,0,1-1.87,2.57,60.19,60.19,0,0,0-12,13.28c-1.83,2.66-3.65,5.33-5.59,7.92-7.71,10.26-15.59,20.38-24,30.08-7.63,8.81-15.43,17.47-23.64,25.75-13.61,13.72-27.87,26.69-43.74,37.81a142.57,142.57,0,0,1-30.28,16.7,67.42,67.42,0,0,1-19.08,4.58,40.37,40.37,0,0,1-18.77-2.53A39.29,39.29,0,0,1,1322.27,438a57.71,57.71,0,0,1-2.9-18.8,103.5,103.5,0,0,1,1.79-19A15.26,15.26,0,0,1,1321.67,398.69ZM330.42,377.86c.24-1,.32-1.45.47-1.89.67-2,1.35-3.89,2-5.83,5.16-14.8,9.89-29.74,14.52-44.72q3.42-11.09,6.75-22.21c3.37-11.25,6.8-22.5,10.05-33.79,3-10.54,5.86-21.14,9.44-31.52a295.68,295.68,0,0,1,12.56-31.35,214,214,0,0,1,12.27-22.76,148.66,148.66,0,0,1,23.61-28.39,146.19,146.19,0,0,1,15.18-13c6.77-4.84,13.77-9.37,20.66-14a15.4,15.4,0,0,0,1.91-1.37c3.68-3.44,4.75-7.76,4-12.58a6.31,6.31,0,0,0-3.11-4.46,15.48,15.48,0,0,0-4-1.77,34.44,34.44,0,0,0-12.25-1,123.52,123.52,0,0,0-14.78,2.36c-5.95,1.27-11.77,3-17.56,4.8-4,1.27-8.11,2.35-12,3.87a166.4,166.4,0,0,0-26.91,13.1,152.55,152.55,0,0,0-25.76,19.44c-4.88,4.66-9.57,9.54-14.2,14.46a268.51,268.51,0,0,0-32.64,43c-7.29,11.74-13.94,23.85-20.05,36.25a367.68,367.68,0,0,0-16,36.93c-3.55,9.75-6.8,19.62-10.12,29.45q-8.12,24.09-16.17,48.2-7.76,23.26-15.45,46.57c-1,3-2,5.93-3,8.92A3.52,3.52,0,0,1,217.6,417c-1.57.54-3.13,1.14-4.73,1.58s-3.46.69-5.15,1.19c-4.13,1.23-8.26,2.47-12.34,3.84q-18.67,6.25-37.3,12.61-14.45,5-28.81,10.16a61.57,61.57,0,0,0-16.71,9.11c-8.3,6.41-12.11,15.16-12.13,25.3,0,11.64,6.12,19.72,16.52,24.59a33.76,33.76,0,0,0,13.43,2.89,47.57,47.57,0,0,0,23.56-5.2c12.22-6.24,24.95-11.39,37.38-17.15a9,9,0,0,1,1.67-.38c-.27.86-.38,1.4-.6,1.89-1.58,3.59-3.2,7.15-4.76,10.75a312.06,312.06,0,0,1-21.3,40.87A237.41,237.41,0,0,1,144,569.6,68.35,68.35,0,0,1,113,590.19a66.66,66.66,0,0,1-24,3.2,29.52,29.52,0,0,1-15.76-5,44.29,44.29,0,0,1-7.92-7,33.82,33.82,0,0,1-7.86-15.23,50.48,50.48,0,0,1-1.11-9.32A60.44,60.44,0,0,1,58.8,538a48.05,48.05,0,0,1,5-11.58,12.83,12.83,0,0,0,1.81-4.93,7.86,7.86,0,0,0-6.75-9.12,13,13,0,0,0-10.68,3A87.34,87.34,0,0,0,31.8,533.8a90.25,90.25,0,0,0-10.46,22.59,85,85,0,0,0-4.12,22.47,62.21,62.21,0,0,0,3.93,25.38,63.64,63.64,0,0,0,15.14,23.18c6.57,6.38,14.38,10.79,22.74,14.31a101.78,101.78,0,0,0,22.34,6.14,115.22,115.22,0,0,0,20.49,1.39,108.16,108.16,0,0,0,14.94-1,146.44,146.44,0,0,0,22.65-5,150.56,150.56,0,0,0,21.89-8.48,187.1,187.1,0,0,0,36.5-24,243.82,243.82,0,0,0,23.92-23c7.12-7.72,13.53-16,19.83-24.37,4.66-6.19,8.8-12.73,13.09-19.17,5.75-8.66,11.14-17.53,16-26.69,4.4-8.2,8.62-16.49,12.8-24.8,2.78-5.51,5.42-11.09,8-16.7,2.75-6,5.32-12,8-18A145.8,145.8,0,0,0,307,439c.25-.84.63-1.65.89-2.49a6.45,6.45,0,0,1,4-4.33c3.54-1.42,7-3,10.5-4.59q15.84-7.05,31.68-14.09c8.95-4,17.93-7.9,26.88-11.86q19.35-8.56,38.68-17.16Q446,372.82,472.31,361.2q24-10.63,48.09-21.3a177.44,177.44,0,0,0,17.36-8.63c4.53-2.63,6-6,4.92-11.08a9.89,9.89,0,0,0-8.93-8.07,37.56,37.56,0,0,0-6.45.05,41.94,41.94,0,0,0-11.63,3c-3.47,1.34-6.84,2.94-10.35,4.17-6,2.12-12.07,4-18.11,6.06q-15,5.06-30.06,10.15c-11.42,3.86-22.82,7.76-34.24,11.58C407,352.44,391.12,357.69,375.23,363q-20.76,6.93-41.51,13.89C332.81,377.18,331.87,377.43,330.42,377.86ZM394.91,5.74c-6.54.17-14.86.36-23.18.6-9.59.27-19.18.82-28.72,1.86-9.25,1-18.5,2-27.7,3.34a396.6,396.6,0,0,0-44.88,9.17,401.29,401.29,0,0,0-57.2,19.63,347.51,347.51,0,0,0-52.45,28.23,246.35,246.35,0,0,0-28.92,22.12c-4.61,4.1-9.17,8.27-13.52,12.63-4,4-7.71,8.34-11.53,12.55A301.66,301.66,0,0,0,84.2,144a314.79,314.79,0,0,0-23.9,38.72,189.87,189.87,0,0,0-11.91,29.06,194.72,194.72,0,0,0-6.18,25.68,146.61,146.61,0,0,0-2.08,34.81,132.7,132.7,0,0,0,4.24,25.16,127.27,127.27,0,0,0,10.1,25.95,120.77,120.77,0,0,0,17.39,25,172.49,172.49,0,0,0,23.49,21.7A114.23,114.23,0,0,0,124,386.59a79.24,79.24,0,0,0,34.55,5.31,50.84,50.84,0,0,0,8.68-1.41,57.89,57.89,0,0,0,22.82-11.69,50.9,50.9,0,0,0,15.85-22.22c2.94-8.05,3.57-16.2.84-24.47a30.38,30.38,0,0,0-10.9-15.3,62.14,62.14,0,0,0-16.24-8.74c-3.13-1.12-6.28-2.24-9.35-3.51-14-5.83-26.4-14.13-36.46-25.62a112.06,112.06,0,0,1-19.43-32,122.12,122.12,0,0,1-8.52-37.07,96.31,96.31,0,0,1,4.48-36.81A113.58,113.58,0,0,1,122,147.79a141.22,141.22,0,0,1,25.17-30.49A171.24,171.24,0,0,1,168,101,225.4,225.4,0,0,1,197.1,84.55a197.25,197.25,0,0,1,53.06-15.74c10.26-1.63,20.56-2.8,30.94-3.41a296.71,296.71,0,0,1,34.65-.13c9.78.58,19.54,1.34,29.26,2.55,12.65,1.57,25.2,3.68,37.62,6.48,12.61,2.83,25.16,5.93,37.7,9,17.59,4.33,35,9.31,52.34,14.56q14.91,4.52,29.78,9.1c7.58,2.33,15.12,4.8,22.73,7q19.46,5.73,39.26,10.11c10.23,2.27,20.51,4.31,30.9,5.69,8.93,1.19,17.89,2.12,26.89,2.68a288.28,288.28,0,0,0,30.55.23c3-.13,6.06-.36,9.07-.69a205.58,205.58,0,0,0,22.63-3.56c5.92-1.33,11.85-2.72,17.66-4.46a157.88,157.88,0,0,0,27.33-11.43A108.59,108.59,0,0,0,751.7,97.32a76.13,76.13,0,0,0,20.43-28.7c4.07-10.09,3.81-20.26.6-30.48a10.91,10.91,0,0,0-5.59-6.52c-5.35-2.76-12.85-2.32-17.53,2.9a33.25,33.25,0,0,0-6.43,10.11,22.31,22.31,0,0,1-4.09,6.75,40.18,40.18,0,0,1-23,13.28,104,104,0,0,1-14.3,1.52,142,142,0,0,1-22-.25c-7-.69-14-1.6-21-2.53-8.75-1.16-17.38-2.92-26-4.92C622.36,56,612,53.11,601.7,49.92q-19.79-6.15-39.51-12.49C554.54,35,547,32.32,539.28,30s-15.62-4.5-23.46-6.68q-16.14-4.48-32.56-7.8c-9.21-1.88-18.46-3.53-27.78-4.8-6.59-.9-13.19-1.79-19.8-2.54-4.86-.56-9.76-.85-14.63-1.29C413,6.12,404.82,6,394.91,5.74ZM987.75,626.85a5.31,5.31,0,0,1-2-2.24c-2.76-4-5.49-8.11-8.25-12.15L937.5,554c-1.6-2.35-3.23-4.67-4.83-7a2.19,2.19,0,0,0-1.86-1.22c-3.82,0-7.65,0-11.47,0-1.39,0-2.09.81-2.22,2.23a20.18,20.18,0,0,0,0,2.06v93.75c0,.69,0,1.37,0,2.06.11,1.42.81,2.23,2.18,2.27,2.83.07,5.68.06,8.52,0a2.11,2.11,0,0,0,2.08-2.07c.07-.87,0-1.76,0-2.64V570.59c0-1,0-2,0-2.94,0-.36-.05-.81.65-1a19.32,19.32,0,0,1,1.38,1.63c1.39,2,2.74,4.06,4.11,6.08l22.55,33.34q9,13.26,18,26.51c2.8,4.13,5.64,8.24,8.39,12.41a3.29,3.29,0,0,0,3.12,1.7c3.23-.08,6.46,0,9.7,0a7.66,7.66,0,0,0,1.17-.07,2,2,0,0,0,1.78-1.68,16.74,16.74,0,0,0,.1-2.35V549.8c0-.58,0-1.17,0-1.76-.15-1.46-.79-2.18-2.22-2.22-2.74-.06-5.49-.06-8.23,0a2.23,2.23,0,0,0-2.3,2.21A28.59,28.59,0,0,0,988,551v71.71c0,1,0,2,0,2.94A8.35,8.35,0,0,1,987.75,626.85ZM804.19,597c-.15-1.95-.29-3.9-.45-5.85a50.78,50.78,0,0,0-12.08-29.39c-9-10.54-20.49-16.42-34.22-18a54.84,54.84,0,0,0-28.19,3.8c-13.59,5.76-23.18,15.51-28.31,29.34a56.36,56.36,0,0,0-.33,39.42c5.75,16.22,17.11,26.94,33.47,32A54.8,54.8,0,0,0,771.23,647a50,50,0,0,0,27-24.47C802.37,614.54,804,606,804.19,597Zm806.3,51.21h11.69a3.65,3.65,0,0,0,.88-.09,2,2,0,0,0,1.32-2.54,14.3,14.3,0,0,0-1-1.77q-6.13-10-12.29-20l-12.9-21c-.39-.65-1-1.24-.69-2.24,1.62-.46,3.33-.87,5-1.4,8.68-2.81,14.7-8.39,17.6-17.12a29,29,0,0,0,.26-16.52,22.58,22.58,0,0,0-11.56-14.84,34.71,34.71,0,0,0-8.48-3.24,61.24,61.24,0,0,0-14.27-1.61c-8.81,0-17.63,0-26.45,0-.68,0-1.37,0-2,0a2.26,2.26,0,0,0-2.32,2.18,25.8,25.8,0,0,0,0,2.64q0,46.44,0,92.86c0,.69,0,1.38,0,2.06.09,1.86.83,2.62,2.74,2.67,2.15.06,4.31,0,6.46,0,3.31,0,3.65-.38,3.66-3.78q0-10,0-20c0-6.57,0-13.13,0-19.69a4.76,4.76,0,0,1,.47-3c.82,0,1.68-.16,2.54-.16,3,0,6.08.1,9.1,0,1.92-.09,3.24.46,4,2.27a1.28,1.28,0,0,0,.15.25q11.22,19,22.45,37.91C1607.9,644,1609.14,646,1610.49,648.23Zm137.33-47.36c1.26,0,2.43-.06,3.59-.06h39.67a25.79,25.79,0,0,0,2.64-.06,2,2,0,0,0,1.88-1.93q.11-3.81,0-7.64a1.91,1.91,0,0,0-1.83-1.95,23.21,23.21,0,0,0-2.64-.07h-39.09c-.88,0-1.76,0-2.64,0a15,15,0,0,1-1.81-.31c0-1.1-.14-2.05-.14-3,0-4.51,0-9,0-13.52q0-6.16,0-12.34a2.48,2.48,0,0,1,.81-2.37c.92,0,2.09-.05,3.25-.05h42.91a23.27,23.27,0,0,0,2.64-.06,2,2,0,0,0,2-2.12c.06-2.45.07-4.9,0-7.35,0-1.37-.86-2.06-2.28-2.19-.58,0-1.17,0-1.76,0h-56.42c-3.59,0-4,.41-4,4.1q0,47.18,0,94.33a15.49,15.49,0,0,0,.07,2,2.18,2.18,0,0,0,1.93,1.92,17.55,17.55,0,0,0,2.05.06h58.19a14,14,0,0,0,2.05-.08,2,2,0,0,0,1.84-2c.07-2.54.08-5.09,0-7.64a2.1,2.1,0,0,0-2.11-2c-.87-.08-1.76,0-2.64,0h-46.14c-.76,0-1.58.13-2.18-.55C1747.31,632.84,1747.38,603.52,1747.82,600.87Zm-484.5-43a9.31,9.31,0,0,1,3.62-.32h41.13c.89,0,1.77,0,2.65,0,1.48-.12,2.07-.74,2.21-2.22a2.64,2.64,0,0,0,0-.29c0-2.15,0-4.31,0-6.46s-.73-2.64-2.65-2.74c-.49,0-1,0-1.47,0h-54.36c-.58,0-1.17,0-1.76,0-1.68.11-2.41.86-2.53,2.59-.05.69,0,1.38,0,2.06v93.14c0,.68,0,1.37,0,2,.11,1.73.83,2.52,2.54,2.57,2.65.07,5.29,0,7.94,0a1.46,1.46,0,0,0,.29,0,2,2,0,0,0,2-2.09c.07-.78,0-1.57,0-2.35V605.27c0-.78,0-1.57,0-2.35a16.11,16.11,0,0,1,.4-1.81c1.17,0,2.23-.08,3.29-.08h38.2a25.79,25.79,0,0,0,2.64-.06,1.77,1.77,0,0,0,1.75-1.68c.07-2.64.09-5.29,0-7.93a1.92,1.92,0,0,0-1.94-1.85c-.87-.08-1.76,0-2.64-.06h-37.31c-.88,0-1.77,0-2.64,0a9.61,9.61,0,0,1-1.58-.4C1262.87,585.83,1262.94,560.27,1263.32,557.86ZM1437,597V550.59c0-.79,0-1.58,0-2.36-.11-1.62-.76-2.37-2.35-2.41-2.74-.07-5.49-.06-8.23,0a2.2,2.2,0,0,0-2.24,2.25c-.07.77,0,1.56,0,2.35v93.17c0,.69,0,1.38,0,2.06.11,1.75.82,2.52,2.54,2.56,2.55.07,5.09,0,7.64,0a5.83,5.83,0,0,0,.59,0,2.11,2.11,0,0,0,2.06-2.09c.07-.88,0-1.76,0-2.64Z"/><path d="M1321.67,398.69a15.26,15.26,0,0,0-.51,1.53,103.5,103.5,0,0,0-1.79,19,57.71,57.71,0,0,0,2.9,18.8,39.29,39.29,0,0,0,23.12,24.36,40.37,40.37,0,0,0,18.77,2.53,67.42,67.42,0,0,0,19.08-4.58,142.57,142.57,0,0,0,30.28-16.7c15.87-11.12,30.13-24.09,43.74-37.81,8.21-8.28,16-16.94,23.64-25.75,8.42-9.7,16.3-19.82,24-30.08,1.94-2.59,3.76-5.26,5.59-7.92a60.19,60.19,0,0,1,12-13.28,7,7,0,0,0,1.87-2.57c4.72-9.58,9.38-19.19,14.18-28.72,9.82-19.52,20.09-38.8,31.08-57.68,1.58-2.71,3.34-5.31,5-8a5.73,5.73,0,0,1,4.87-2.79,28.27,28.27,0,0,1,10.42,1.49,82.83,82.83,0,0,1,24.63,12.22,42.65,42.65,0,0,1,9.27,8.52,32.09,32.09,0,0,1,1.81,2.67,8.65,8.65,0,0,1,.92,8.14c-2,5-3.8,10.08-5.92,15-4.58,10.72-9.38,21.34-14,32.06-4.23,9.91-8.28,19.9-12.38,29.86-.36.86-1,1.68-.65,3a12.28,12.28,0,0,0,1.14-1.11c11.78-14.66,24.18-28.79,37-42.56q16.83-18.07,34.6-35.21c13-12.51,26.27-24.69,40.26-36.08a157.9,157.9,0,0,1,14.6-10.87c.5-.32,1-.61,1.49-.94a5.4,5.4,0,0,1,4.44-.77,60.18,60.18,0,0,1,26.12,12.81,43.76,43.76,0,0,1,10.38,11.89,23.41,23.41,0,0,1,3.15,9.7,14.22,14.22,0,0,1-1.26,7.44c-8,17.54-16.15,35-24.12,52.63-3.8,8.38-7.33,16.89-11,25.35a32.68,32.68,0,0,0-1.17,3.32,6.77,6.77,0,0,0-.26,1.73,1,1,0,0,0,1.36,1.1,9.21,9.21,0,0,0,2.38-1.1,59.3,59.3,0,0,0,5.38-4.07c4-3.57,8.09-7.13,11.93-10.9,10.77-10.56,21.42-21.24,32.14-31.86,8.64-8.54,17.29-17.07,26.58-24.92,2.24-1.89,4.64-3.59,7-5.33a10.14,10.14,0,0,1,4.25-1.92c1.34-.23,2.15.37,2.13,1.7a10.9,10.9,0,0,1-.43,3.18c-.91,2.79-1.83,5.59-3,8.28a192.49,192.49,0,0,1-12.84,24.1q-16,26.22-34.24,51a290.18,290.18,0,0,1-25.72,30.92,104.92,104.92,0,0,1-10.78,9.53c-5.35,4.16-11.36,5.48-18,4.75a50.64,50.64,0,0,1-16.55-4.88,93.66,93.66,0,0,1-34.65-28,44.36,44.36,0,0,1-7-12.53,20.2,20.2,0,0,1-.66-11.27,113.32,113.32,0,0,1,6.08-18.69c3.27-7.78,7.18-15.24,11.13-22.68l2.07-3.88c-.66-.62-.93,0-1.18.31q-4.77,5.4-9.5,10.82c-6.5,7.46-13,14.88-19.47,22.4-5.74,6.69-11.44,13.41-17,20.25q-9.74,11.94-19.22,24.12c-9.12,11.77-17.84,23.84-26,36.32A313.4,313.4,0,0,0,1565,441.47a159.23,159.23,0,0,0-10.9,28.81,79.59,79.59,0,0,0-2.89,25.59,5.81,5.81,0,0,1-3.75,6,23.2,23.2,0,0,1-9.78,1.62,70.1,70.1,0,0,1-18.52-2.91,85.23,85.23,0,0,1-19-7.85,52.24,52.24,0,0,1-15.51-12.86,30.37,30.37,0,0,1-6.79-18.7c-.17-7.8,1.14-15.41,2.84-23,.52-2.29,1.14-4.56,1.69-6.85a3.56,3.56,0,0,0,0-.8c-.72-.18-.92.34-1.22.69-5.37,6.35-10.63,12.81-16.13,19a314.44,314.44,0,0,1-32.88,32.31A197.5,197.5,0,0,1,1404,502.67a117.67,117.67,0,0,1-33.67,13.56,82.9,82.9,0,0,1-17.18,2,46.11,46.11,0,0,1-9.92-1.1,112.6,112.6,0,0,1-21.48-7A177.77,177.77,0,0,1,1284.1,488a144.83,144.83,0,0,1-21.32-19.72,92.79,92.79,0,0,1-13.32-19.3,61,61,0,0,1-4.49-11.46c-.25-.93-.6-1.83-.91-2.79-1,.17-1.29,1-1.71,1.56-5,6.91-9.83,13.93-15,20.72-6,7.89-12.12,15.64-18.33,23.34a319.55,319.55,0,0,1-23.22,25.73,163.4,163.4,0,0,1-20,17.26,67.83,67.83,0,0,1-15.36,8.57,27.78,27.78,0,0,1-13.84,1.71,70.46,70.46,0,0,1-18.29-5.31A112,112,0,0,1,1096,515.42a108.44,108.44,0,0,1-19.7-18.4,69.92,69.92,0,0,1-12.8-22.63c-.45-1.39-.77-2.83-1.17-4.25-.18-.64-.41-1.27-.69-2.15a6,6,0,0,0-1.22.88c-2.22,2.87-4.37,5.79-6.58,8.66a330.63,330.63,0,0,1-36.57,40.53A246,246,0,0,1,998,534a6.16,6.16,0,0,1-4.33,1.47,7.66,7.66,0,0,0-3.15.45c-1.45.49-3.11.39-4.55.9-2.91,1.05-5.71,2.36-7.47,5.15-.62,1-1.42,1.86-2.09,2.81a2.7,2.7,0,0,0-.63,1.28c-.06,1.2-.82,1.68-1.75,2.12a88,88,0,0,1-11.46,4.53c-2.34.73-4.71,1.34-7.07,2a13.91,13.91,0,0,1-1.55.21c-2.77-4-5.54-8-8.25-12a16.78,16.78,0,0,0-5.5-5.14,12,12,0,0,0-3-1c-1.59-.43-3.18-.82-4.79-1.17a9.91,9.91,0,0,0-2-.15c-1.76,0-3.53.06-5.29,0a20.56,20.56,0,0,0-7.75,1,7,7,0,0,1-1.44.24,7,7,0,0,0-4,1.52,2,2,0,0,1-.51.29c-3,1.32-4.46,4.2-6.31,6.65a3.77,3.77,0,0,0-.41,1.38l-1.64,7.15c-.64.49-1.41.1-2.14-.08A93.8,93.8,0,0,1,887.27,549a107.22,107.22,0,0,1-18.1-9.71,101.41,101.41,0,0,1-15.56-12.94,99,99,0,0,1-19.48-27.77,109.06,109.06,0,0,1-6.61-18.2c-.17-.66-.4-1.3-.62-1.95,0-.06-.16-.08-.44-.21-2.23,2.21-3.91,4.95-5.91,7.42s-4.11,5.25-6.17,7.86-4,5.05-6.08,7.56-4.23,5.13-6.39,7.67-4.21,4.91-6.36,7.32-4.36,4.77-6.56,7.14-4.51,4.91-6.84,7.28-4.46,4.65-6.91,6.73c-2.76-.67-5.37-1.38-8-1.91-3.59-.73-7.12-1.92-10.87-1.76-.66,0-1.33-.32-2-.35-1.45,0-2.91-.06-4.37,0-.67,0-1.34.39-2,.35-3.27-.21-6.37.62-9.49,1.32L732,536.34a58.21,58.21,0,0,0-14.07,5.48,33.44,33.44,0,0,0-4.44,2.79c-4,3-8.29,5.83-11.7,9.65a16.31,16.31,0,0,1-1.73,1.5,9.39,9.39,0,0,1-3.32-1.37,104.85,104.85,0,0,1-25.15-19.16,87.44,87.44,0,0,1-15.64-21.56,69.07,69.07,0,0,1-4.45-11.18,17.7,17.7,0,0,0-.8-1.79,17.94,17.94,0,0,0-1.4,1.76q-6.42,10.53-12.8,21.1a249.58,249.58,0,0,1-18.14,26.73,99.42,99.42,0,0,1-13.65,14.54,68.09,68.09,0,0,1-6.1,4.6c-8.1,5.33-17,6.62-26.47,5.13a89.26,89.26,0,0,1-22.66-7.06,145.33,145.33,0,0,1-26.83-15.7,136.48,136.48,0,0,1-21-18.74,76.17,76.17,0,0,1-13-19.48,43.41,43.41,0,0,1-3.56-12.67c-1.31-10.83-.32-21.51,1.75-32.13,3.05-15.57,8.34-30.39,14.88-44.8A302.4,302.4,0,0,1,531,373.8c6.2-8.71,12.92-17,19.94-25a288.46,288.46,0,0,1,34.8-33.69,229.62,229.62,0,0,1,31.65-21.83,177.86,177.86,0,0,1,39.33-16.88,130,130,0,0,1,26.23-4.94c3-.22,6.06-.44,9.09-.51a59,59,0,0,1,16,2.14A103.47,103.47,0,0,1,743.91,290a47.56,47.56,0,0,1,10.91,10.61,4.69,4.69,0,0,0,3.37,2,125.08,125.08,0,0,1,18.29,4.27,113.52,113.52,0,0,1,28.25,12.91,40.68,40.68,0,0,1,8.95,7.55,19.3,19.3,0,0,1,2,2.87,6.17,6.17,0,0,1-.23,6.89q-6.42,10.18-12.56,20.56c-11.51,19.38-22.37,39.11-32.76,59.11-6.19,11.91-12.08,24-17.47,36.26-3.5,8-6.85,16-8.85,24.57a35.69,35.69,0,0,0-1,7c-.14,4.23,2.21,5.79,6,4a42.13,42.13,0,0,0,7.05-4.19c4.18-3.08,8.29-6.26,12.24-9.63,11.86-10.1,23.07-20.92,33.93-32.1,7.29-7.53,14.49-15.15,21.67-22.78,10.2-10.85,20-22.07,29.64-33.39a72.67,72.67,0,0,1,12.52-12,28.13,28.13,0,0,1,4.46-2.82,12.08,12.08,0,0,0,4.24-3.52q12-14.69,24-29.35,10.23-12.51,19.73-25.59c2.53-3.49,5-7.06,7.49-10.54a13.25,13.25,0,0,0,2.33-5.63,97.75,97.75,0,0,1,5.38-18.6,68.68,68.68,0,0,1,21.35-28.3,15.21,15.21,0,0,1,8.41-3.11,34.24,34.24,0,0,1,12.49,1.42,57.45,57.45,0,0,1,27,15.93,28.48,28.48,0,0,1,7.08,12.37,15.48,15.48,0,0,1-1.23,11.4,35.7,35.7,0,0,1-3.8,5.92c-3.71,4.68-7.58,9.23-11.36,13.86-1.12,1.36-2.12,2.82-3.23,4.19a2.48,2.48,0,0,0-.54,2.45c.72,2.33,1.26,4.73,2.14,7a92,92,0,0,0,9.23,17c5.64,8.62,11.91,16.77,18.06,25,6.51,8.71,13,17.44,19.32,26.28a198.11,198.11,0,0,1,11.36,18.18c.33.59.7,1.16,1,1.64,1,.3,1.4-.36,1.85-.83,4-4.18,8-8.33,11.93-12.57,3-3.24,5.84-6.61,8.79-9.88a13.79,13.79,0,0,0,2.71-4.48c2.56-6.79,5.12-13.57,7.83-20.29,5.56-13.82,11.69-27.39,18.24-40.76,3.71-7.57,7.58-15.05,11.36-22.58.34-.68.61-1.39.88-2-.6-.87-1.32-.58-2-.53a142.91,142.91,0,0,1-20,.57c-1,0-2-.12-2.93-.22a10.72,10.72,0,0,1-8.61-5.89,15.4,15.4,0,0,1-1-12.79,24.2,24.2,0,0,1,7.78-10.84c4.84-4.13,10.49-6.79,16.38-9.05,5.05-1.94,10.36-2.9,15.6-4.13,6.1-1.43,12.2-2.9,18.32-4.23a4.72,4.72,0,0,0,3.29-2.59c6.86-11.87,13.68-23.77,20.7-35.54,5.42-9.09,11-18.06,16.69-27,7.19-11.33,14.49-22.59,21.8-33.84,3.08-4.75,1.85-3.95,7.63-5.68a57.31,57.31,0,0,1,19.19-2.06,64.59,64.59,0,0,1,16.19,2.75A45.9,45.9,0,0,1,1256,151a21.46,21.46,0,0,1,5.93,5.62,10.54,10.54,0,0,1,.58,11.88q-4.55,8.22-8.65,16.69c-4.82,10-9.49,20-14.2,30-3,6.38-6,12.77-9,19.17-.24.51-.37,1.06-.62,1.79a8.22,8.22,0,0,0,1.56.26,180.31,180.31,0,0,1,21.43.39,9,9,0,0,0,1.47,0c3.63-.27,6.7,1.15,9.53,3.22a46.81,46.81,0,0,1,9.34,9.31,91.17,91.17,0,0,1,13,22.59,59.94,59.94,0,0,1,1.9,5.87,13.39,13.39,0,0,1,.38,5.24,3.85,3.85,0,0,1-3.28,3.64,14.29,14.29,0,0,1-3.2.23c-3.53-.12-7-.4-10.57-.45q-13.52-.18-27-.21c-11.27,0-22.53.52-33.78,1.12-1.17.06-2.35,0-3.52,0a1.91,1.91,0,0,0-1.87,1.17c-.25.54-.51,1.07-.73,1.61-6.55,15.52-13.18,31-19.6,46.59-6.51,15.75-12.55,31.69-18.28,47.75-4.44,12.46-8.51,25-11.88,37.82a155.93,155.93,0,0,0-4.79,24.79,46.69,46.69,0,0,0,.38,13.76,12.76,12.76,0,0,0,1.69,4.35c1.1,1.72,2.22,2.18,4.25,1.58a18.76,18.76,0,0,0,3.25-1.32,52.75,52.75,0,0,0,9.8-7c4.71-4,9.19-8.25,13.51-12.66,9.32-9.53,18.36-19.3,27-29.46,7.73-9.11,15.54-18.16,23.24-27.29,4.61-5.47,9.06-11.06,13.61-16.58a9.13,9.13,0,0,0,1.7-3.36,223.34,223.34,0,0,1,20.61-48.9,234.7,234.7,0,0,1,23.57-34.37,190.25,190.25,0,0,1,31.46-30.74c9.35-7.08,19.31-13,30.43-16.92a54.14,54.14,0,0,1,15.48-3.26,58.89,58.89,0,0,1,14.32,1,111.38,111.38,0,0,1,29.92,11.09A132.19,132.19,0,0,1,1435,260.59c9.25,7.35,17.57,15.61,23.85,25.73a47.59,47.59,0,0,1,6.53,16,39.51,39.51,0,0,1,.44,10.53,108.16,108.16,0,0,1-5.36,25.54,154.61,154.61,0,0,1-9.76,23.28,141.63,141.63,0,0,1-19.1,28.49A100,100,0,0,1,1405.3,412a76.46,76.46,0,0,1-27.68,9.32,44.86,44.86,0,0,1-18-1.42,98,98,0,0,1-31.42-15.58c-1.74-1.26-3.28-2.79-4.91-4.2ZM734.13,324.16c-.64-.13-1.28-.29-1.92-.36a62.27,62.27,0,0,0-23.82,2.47,101.23,101.23,0,0,0-24.62,11,182.25,182.25,0,0,0-32.61,25.89,289.29,289.29,0,0,0-27.95,32.1,301.59,301.59,0,0,0-33.75,56c-3.84,8.39-7.2,16.95-9,26a34.13,34.13,0,0,0-.76,10.8,12.3,12.3,0,0,0,.88,3.38,6.5,6.5,0,0,0,8,3.84,18.13,18.13,0,0,0,3.8-1.54,33.94,33.94,0,0,0,4-2.48,113.64,113.64,0,0,0,14-12.14c8.78-8.68,17.06-17.82,25.09-27.2q13.08-15.3,25.69-31c12.49-15.48,24.61-31.24,36.67-47,7.13-9.35,14.11-18.8,21.15-28.22q7.13-9.53,14.2-19.1C733.54,326,734.28,325.35,734.13,324.16ZM933.29,354c-1.06,1.18-1.73,1.87-2.33,2.6q-17.38,21.06-34.75,42.14c-3.42,4.15-6.83,8.32-10.29,12.44a6.25,6.25,0,0,0-1.63,3.68c-.14,2.05-.42,4.09-.49,6.14a56,56,0,0,0,2.29,17.39,75.39,75.39,0,0,0,10,21.47A71.74,71.74,0,0,0,913.53,478a50.45,50.45,0,0,0,25.7,9.89,41.4,41.4,0,0,0,19.28-2.93,15.39,15.39,0,0,0,9.11-9.77,27.43,27.43,0,0,0,1.21-9.56A71.8,71.8,0,0,0,966.32,450a225.19,225.19,0,0,0-8.05-24.52c-4.08-10.7-8-21.44-12.09-32.14-4.23-11.18-8.12-22.46-11.33-34C934.41,357.76,933.93,356.19,933.29,354Zm395.64,23.55a3.53,3.53,0,0,0,.8.5,28,28,0,0,0,10.46,1,40.47,40.47,0,0,0,18.22-6.89,95.62,95.62,0,0,0,22.52-21.73,165.39,165.39,0,0,0,21-36.22,96.18,96.18,0,0,0,5.83-17.84,36.68,36.68,0,0,0,.87-8.16,8.87,8.87,0,0,0-.93-4,3.57,3.57,0,0,0-4.15-2,19,19,0,0,0-4.71,1.57,58.73,58.73,0,0,0-7.23,4.46c-7.86,5.79-14.34,13-20.68,20.35-4.86,5.63-9.3,11.61-13.64,17.66a290.31,290.31,0,0,0-22,35.36c-1.93,3.73-3.56,7.62-5.24,11.48A10.07,10.07,0,0,0,1328.93,377.57Z"/><path d="M330.42,377.86c1.45-.43,2.39-.68,3.3-1q20.76-6.94,41.51-13.89c15.89-5.3,31.8-10.55,47.68-15.87,11.42-3.82,22.82-7.72,34.24-11.58q15-5.09,30.06-10.15c6-2,12.11-3.94,18.11-6.06,3.51-1.23,6.88-2.83,10.35-4.17a41.94,41.94,0,0,1,11.63-3,37.56,37.56,0,0,1,6.45-.05,9.89,9.89,0,0,1,8.93,8.07c1.12,5.05-.39,8.45-4.92,11.08a177.44,177.44,0,0,1-17.36,8.63q-24.06,10.62-48.09,21.3Q446,372.86,419.63,384.46,400.28,393,381,401.62c-8.95,4-17.93,7.89-26.88,11.86q-15.85,7-31.68,14.09c-3.49,1.55-7,3.17-10.5,4.59a6.45,6.45,0,0,0-4,4.33c-.26.84-.64,1.65-.89,2.49a145.8,145.8,0,0,1-7.45,19.14c-2.7,6-5.27,12-8,18-2.58,5.61-5.22,11.19-8,16.7-4.18,8.31-8.4,16.6-12.8,24.8-4.9,9.16-10.29,18-16,26.69-4.29,6.44-8.43,13-13.09,19.17-6.3,8.37-12.71,16.65-19.83,24.37a243.82,243.82,0,0,1-23.92,23,187.1,187.1,0,0,1-36.5,24,150.56,150.56,0,0,1-21.89,8.48,146.44,146.44,0,0,1-22.65,5,108.16,108.16,0,0,1-14.94,1,115.22,115.22,0,0,1-20.49-1.39A101.78,101.78,0,0,1,59,641.73c-8.36-3.52-16.17-7.93-22.74-14.31a63.64,63.64,0,0,1-15.14-23.18,62.21,62.21,0,0,1-3.93-25.38,85,85,0,0,1,4.12-22.47A90.25,90.25,0,0,1,31.8,533.8a87.34,87.34,0,0,1,16.34-18.4,13,13,0,0,1,10.68-3,7.86,7.86,0,0,1,6.75,9.12,12.83,12.83,0,0,1-1.81,4.93,48.05,48.05,0,0,0-5,11.58,60.44,60.44,0,0,0-2.46,18.85,50.48,50.48,0,0,0,1.11,9.32,33.82,33.82,0,0,0,7.86,15.23,44.29,44.29,0,0,0,7.92,7,29.52,29.52,0,0,0,15.76,5,66.66,66.66,0,0,0,24-3.2A68.35,68.35,0,0,0,144,569.6a237.41,237.41,0,0,0,22.38-30.54,312.06,312.06,0,0,0,21.3-40.87c1.56-3.6,3.18-7.16,4.76-10.75.22-.49.33-1,.6-1.89a9,9,0,0,0-1.67.38c-12.43,5.76-25.16,10.91-37.38,17.15a47.57,47.57,0,0,1-23.56,5.2A33.76,33.76,0,0,1,117,505.39c-10.4-4.87-16.55-12.95-16.52-24.59,0-10.14,3.83-18.89,12.13-25.3a61.57,61.57,0,0,1,16.71-9.11q14.35-5.2,28.81-10.16,18.61-6.39,37.3-12.61c4.08-1.37,8.21-2.61,12.34-3.84,1.69-.5,3.45-.72,5.15-1.19s3.16-1,4.73-1.58a3.52,3.52,0,0,0,2.31-2.45c1-3,2-5.95,3-8.92q7.73-23.29,15.45-46.57,8.06-24.12,16.17-48.2c3.32-9.83,6.57-19.7,10.12-29.45a367.68,367.68,0,0,1,16-36.93c6.11-12.4,12.76-24.51,20.05-36.25a268.51,268.51,0,0,1,32.64-43c4.63-4.92,9.32-9.8,14.2-14.46a152.55,152.55,0,0,1,25.76-19.44,166.4,166.4,0,0,1,26.91-13.1c3.92-1.52,8-2.6,12-3.87,5.79-1.82,11.61-3.53,17.56-4.8a123.52,123.52,0,0,1,14.78-2.36,34.44,34.44,0,0,1,12.25,1,15.48,15.48,0,0,1,4,1.77,6.31,6.31,0,0,1,3.11,4.46c.71,4.82-.36,9.14-4,12.58A15.4,15.4,0,0,1,458,128.4c-6.89,4.66-13.89,9.19-20.66,14a146.19,146.19,0,0,0-15.18,13,148.66,148.66,0,0,0-23.61,28.39,214,214,0,0,0-12.27,22.76,295.68,295.68,0,0,0-12.56,31.35c-3.58,10.38-6.41,21-9.44,31.52-3.25,11.29-6.68,22.54-10.05,33.79q-3.35,11.13-6.75,22.21c-4.63,15-9.36,29.92-14.52,44.72-.67,1.94-1.35,3.88-2,5.83C330.74,376.41,330.66,376.88,330.42,377.86Z"/><path d="M394.91,5.74c9.91.21,18,.38,26.14,1.12,4.87.44,9.77.73,14.63,1.29,6.61.75,13.21,1.64,19.8,2.54,9.32,1.27,18.57,2.92,27.78,4.8q16.42,3.33,32.56,7.8c7.84,2.18,15.69,4.31,23.46,6.68s15.26,5,22.91,7.46q19.74,6.3,39.51,12.49c10.29,3.19,20.66,6.1,31.15,8.56,8.59,2,17.22,3.76,26,4.92,7,.93,14,1.84,21,2.53a142,142,0,0,0,22,.25,104,104,0,0,0,14.3-1.52,40.18,40.18,0,0,0,23-13.28,22.31,22.31,0,0,0,4.09-6.75,33.25,33.25,0,0,1,6.43-10.11c4.68-5.22,12.18-5.66,17.53-2.9a10.91,10.91,0,0,1,5.59,6.52c3.21,10.22,3.47,20.39-.6,30.48a76.13,76.13,0,0,1-20.43,28.7,108.59,108.59,0,0,1-22.23,15.27A157.88,157.88,0,0,1,702.14,124c-5.81,1.74-11.74,3.13-17.66,4.46A205.58,205.58,0,0,1,661.85,132c-3,.33-6,.56-9.07.69a288.28,288.28,0,0,1-30.55-.23c-9-.56-18-1.49-26.89-2.68-10.39-1.38-20.67-3.42-30.9-5.69q-19.8-4.39-39.26-10.11c-7.61-2.23-15.15-4.7-22.73-7q-14.88-4.58-29.78-9.1c-17.33-5.25-34.75-10.23-52.34-14.56-12.54-3.1-25.09-6.2-37.7-9-12.42-2.8-25-4.91-37.62-6.48-9.72-1.21-19.48-2-29.26-2.55a296.71,296.71,0,0,0-34.65.13c-10.38.61-20.68,1.78-30.94,3.41A197.25,197.25,0,0,0,197.1,84.55,225.4,225.4,0,0,0,168,101a171.24,171.24,0,0,0-20.81,16.27A141.22,141.22,0,0,0,122,147.79a113.58,113.58,0,0,0-11.65,25.28,96.31,96.31,0,0,0-4.48,36.81A122.12,122.12,0,0,0,114.4,247a112.06,112.06,0,0,0,19.43,32c10.06,11.49,22.41,19.79,36.46,25.62,3.07,1.27,6.22,2.39,9.35,3.51a62.14,62.14,0,0,1,16.24,8.74,30.38,30.38,0,0,1,10.9,15.3c2.73,8.27,2.1,16.42-.84,24.47a50.9,50.9,0,0,1-15.85,22.22,57.89,57.89,0,0,1-22.82,11.69,50.84,50.84,0,0,1-8.68,1.41A79.24,79.24,0,0,1,124,386.59a114.23,114.23,0,0,1-28.69-16.44,172.49,172.49,0,0,1-23.49-21.7,120.77,120.77,0,0,1-17.39-25,127.27,127.27,0,0,1-10.1-25.95,132.7,132.7,0,0,1-4.24-25.16,146.61,146.61,0,0,1,2.08-34.81,194.72,194.72,0,0,1,6.18-25.68A189.87,189.87,0,0,1,60.3,182.76,314.79,314.79,0,0,1,84.2,144a301.66,301.66,0,0,1,22.61-28.17c3.82-4.21,7.53-8.53,11.53-12.55,4.35-4.36,8.91-8.53,13.52-12.63a246.35,246.35,0,0,1,28.92-22.12,347.51,347.51,0,0,1,52.45-28.23,401.29,401.29,0,0,1,57.2-19.63,396.6,396.6,0,0,1,44.88-9.17c9.2-1.33,18.45-2.33,27.7-3.34,9.54-1,19.13-1.59,28.72-1.86C380.05,6.1,388.37,5.91,394.91,5.74Z"/><path d="M987.75,626.85a8.35,8.35,0,0,0,.27-1.24c0-1,0-2,0-2.94V551a28.59,28.59,0,0,1,.06-2.93,2.23,2.23,0,0,1,2.3-2.21c2.74-.06,5.49-.06,8.23,0,1.43,0,2.07.76,2.22,2.22,0,.59,0,1.18,0,1.76v94.34a16.74,16.74,0,0,1-.1,2.35,2,2,0,0,1-1.78,1.68,7.66,7.66,0,0,1-1.17.07c-3.24,0-6.47,0-9.7,0a3.29,3.29,0,0,1-3.12-1.7c-2.75-4.17-5.59-8.28-8.39-12.41q-9-13.26-18-26.51L936.1,574.31c-1.37-2-2.72-4.07-4.11-6.08a19.32,19.32,0,0,0-1.38-1.63c-.7.24-.64.69-.65,1,0,1,0,2,0,2.94v72.88c0,.88,0,1.77,0,2.64a2.11,2.11,0,0,1-2.08,2.07c-2.84.07-5.69.08-8.52,0-1.37,0-2.07-.85-2.18-2.27-.05-.69,0-1.37,0-2.06V550.11a20.18,20.18,0,0,1,0-2.06c.13-1.42.83-2.21,2.22-2.23,3.82-.05,7.65,0,11.47,0a2.19,2.19,0,0,1,1.86,1.22c1.6,2.35,3.23,4.67,4.83,7l40,58.42c2.76,4,5.49,8.11,8.25,12.15A5.31,5.31,0,0,0,987.75,626.85Z"/><path d="M804.19,597c-.18,8.94-1.82,17.52-6,25.52a50,50,0,0,1-27,24.47,54.8,54.8,0,0,1-37.15,1.36c-16.36-5.1-27.72-15.82-33.47-32a56.36,56.36,0,0,1,.33-39.42c5.13-13.83,14.72-23.58,28.31-29.34a54.84,54.84,0,0,1,28.19-3.8c13.73,1.59,25.26,7.47,34.22,18a50.78,50.78,0,0,1,12.08,29.39C803.9,593.12,804,595.07,804.19,597Zm-53,42.07A36.92,36.92,0,0,0,766.65,636a37.66,37.66,0,0,0,20.66-21.36,46.93,46.93,0,0,0,3-23,43.33,43.33,0,0,0-6.7-19.21A37.69,37.69,0,0,0,759,555.71c-4.84-1-4.84-1-9.1,1.56a29.61,29.61,0,0,1-6.6,3.14c-2.62.78-5.23,1.62-7.81,2.53a13.62,13.62,0,0,1-4.88.91c-1.07,0-2.16,0-3.22-.06a4.17,4.17,0,0,0-3.42,1.27,38.18,38.18,0,0,0-10.24,15.53,47.8,47.8,0,0,0,0,33.07,36.75,36.75,0,0,0,10.09,15.28A38.94,38.94,0,0,0,751.21,639.09Z"/><path d="M1610.49,648.23c-1.35-2.21-2.59-4.2-3.79-6.21q-11.23-18.94-22.45-37.91a1.28,1.28,0,0,1-.15-.25c-.72-1.81-2-2.36-4-2.27-3,.15-6.07,0-9.1,0-.86,0-1.72.11-2.54.16a4.76,4.76,0,0,0-.47,3c0,6.56,0,13.12,0,19.69s0,13.32,0,20c0,3.4-.35,3.75-3.66,3.78-2.15,0-4.31,0-6.46,0-1.91-.05-2.65-.81-2.74-2.67,0-.68,0-1.37,0-2.06q0-46.43,0-92.86a25.8,25.8,0,0,1,0-2.64,2.26,2.26,0,0,1,2.32-2.18c.68-.06,1.37,0,2,0,8.82,0,17.64,0,26.45,0a61.24,61.24,0,0,1,14.27,1.61,34.71,34.71,0,0,1,8.48,3.24,22.58,22.58,0,0,1,11.56,14.84,29,29,0,0,1-.26,16.52c-2.9,8.73-8.92,14.31-17.6,17.12-1.66.53-3.37.94-5,1.4-.31,1,.3,1.59.69,2.24l12.9,21q6.15,10,12.29,20a14.3,14.3,0,0,1,1,1.77,2,2,0,0,1-1.32,2.54,3.65,3.65,0,0,1-.88.09ZM1568.31,590a14.32,14.32,0,0,0,1.57.21c5.59,0,11.17.09,16.75,0a34,34,0,0,0,12.35-2.35c4.82-2,8.24-5.24,9.22-10.58a19.08,19.08,0,0,0-.06-7.3,13.43,13.43,0,0,0-4.78-7.88,17.94,17.94,0,0,0-7.07-3.44,37,37,0,0,0-9-1.3c-5.78,0-11.56,0-17.34,0a9.76,9.76,0,0,0-1.6.24C1567.94,560,1567.89,587,1568.31,590Z"/><path d="M1747.82,600.87c-.44,2.65-.51,32-.16,35,.6.68,1.42.55,2.18.55H1796c.88,0,1.77,0,2.64,0a2.1,2.1,0,0,1,2.11,2c.07,2.55.06,5.1,0,7.64a2,2,0,0,1-1.84,2,14,14,0,0,1-2.05.08h-58.19a17.55,17.55,0,0,1-2.05-.06,2.18,2.18,0,0,1-1.93-1.92,15.49,15.49,0,0,1-.07-2q0-47.16,0-94.33c0-3.69.39-4.09,4-4.1H1795c.59,0,1.18,0,1.76,0,1.42.13,2.24.82,2.28,2.19.08,2.45.07,4.9,0,7.35a2,2,0,0,1-2,2.12,23.27,23.27,0,0,1-2.64.06h-42.91c-1.16,0-2.33,0-3.25.05a2.48,2.48,0,0,0-.81,2.37q0,6.16,0,12.34c0,4.5,0,9,0,13.52,0,1,.09,1.91.14,3a15,15,0,0,0,1.81.31c.88.05,1.76,0,2.64,0h39.09a23.21,23.21,0,0,1,2.64.07,1.91,1.91,0,0,1,1.83,1.95q.09,3.83,0,7.64a2,2,0,0,1-1.88,1.93,25.79,25.79,0,0,1-2.64.06h-39.67C1750.25,600.81,1749.08,600.85,1747.82,600.87Z"/><path d="M1263.32,557.86c-.38,2.41-.45,28-.1,31.16a9.61,9.61,0,0,0,1.58.4c.87.07,1.76,0,2.64,0h37.31c.88,0,1.77,0,2.64.06a1.92,1.92,0,0,1,1.94,1.85c.07,2.64.05,5.29,0,7.93a1.77,1.77,0,0,1-1.75,1.68,25.79,25.79,0,0,1-2.64.06h-38.2c-1.06,0-2.12.05-3.29.08a16.11,16.11,0,0,0-.4,1.81c-.06.78,0,1.57,0,2.35v38.49c0,.78,0,1.57,0,2.35a2,2,0,0,1-2,2.09,1.46,1.46,0,0,1-.29,0c-2.65,0-5.29.06-7.94,0-1.71-.05-2.43-.84-2.54-2.57-.05-.68,0-1.37,0-2V550.45c0-.68,0-1.37,0-2.06.12-1.73.85-2.48,2.53-2.59.59,0,1.18,0,1.76,0h54.36c.49,0,1,0,1.47,0,1.92.1,2.59.74,2.65,2.74s0,4.31,0,6.46a2.64,2.64,0,0,1,0,.29c-.14,1.48-.73,2.1-2.21,2.22-.88.07-1.76,0-2.65,0h-41.13A9.31,9.31,0,0,0,1263.32,557.86Z"/><path d="M1437,597v46.44c0,.88,0,1.76,0,2.64a2.11,2.11,0,0,1-2.06,2.09,5.83,5.83,0,0,1-.59,0c-2.55,0-5.09,0-7.64,0-1.72,0-2.43-.81-2.54-2.56,0-.68,0-1.37,0-2.06V550.42c0-.79,0-1.58,0-2.35a2.2,2.2,0,0,1,2.24-2.25c2.74-.06,5.49-.07,8.23,0,1.59,0,2.24.79,2.35,2.41,0,.78,0,1.57,0,2.36Z"/><path class="cls-1" d="M734.13,324.16c.15,1.19-.59,1.79-1.09,2.46q-7.08,9.57-14.2,19.1c-7,9.42-14,18.87-21.15,28.22-12.06,15.8-24.18,31.56-36.67,47q-12.64,15.66-25.69,31c-8,9.38-16.31,18.52-25.09,27.2a113.64,113.64,0,0,1-14,12.14,33.94,33.94,0,0,1-4,2.48,18.13,18.13,0,0,1-3.8,1.54,6.5,6.5,0,0,1-8-3.84,12.3,12.3,0,0,1-.88-3.38,34.13,34.13,0,0,1,.76-10.8c1.84-9.09,5.2-17.65,9-26a301.59,301.59,0,0,1,33.75-56,289.29,289.29,0,0,1,27.95-32.1,182.25,182.25,0,0,1,32.61-25.89,101.23,101.23,0,0,1,24.62-11,62.27,62.27,0,0,1,23.82-2.47C732.85,323.87,733.49,324,734.13,324.16Z"/><path class="cls-1" d="M933.29,354c.64,2.17,1.12,3.74,1.56,5.33,3.21,11.51,7.1,22.79,11.33,34,4,10.7,8,21.44,12.09,32.14A225.19,225.19,0,0,1,966.32,450a71.8,71.8,0,0,1,2.51,15.62,27.43,27.43,0,0,1-1.21,9.56,15.39,15.39,0,0,1-9.11,9.77,41.4,41.4,0,0,1-19.28,2.93,50.45,50.45,0,0,1-25.7-9.89,71.74,71.74,0,0,1-17.44-18.09,75.39,75.39,0,0,1-10-21.47A56,56,0,0,1,883.8,421c.07-2,.35-4.09.49-6.14a6.25,6.25,0,0,1,1.63-3.68c3.46-4.12,6.87-8.29,10.29-12.44q17.37-21.08,34.75-42.14C931.56,355.89,932.23,355.2,933.29,354Z"/><path class="cls-1" d="M1328.93,377.57a10.07,10.07,0,0,1,1.12-4.48c1.68-3.86,3.31-7.75,5.24-11.48a290.31,290.31,0,0,1,22-35.36c4.34-6.05,8.78-12,13.64-17.66,6.34-7.34,12.82-14.56,20.68-20.35a58.73,58.73,0,0,1,7.23-4.46,19,19,0,0,1,4.71-1.57,3.57,3.57,0,0,1,4.15,2,8.87,8.87,0,0,1,.93,4,36.68,36.68,0,0,1-.87,8.16,96.18,96.18,0,0,1-5.83,17.84,165.39,165.39,0,0,1-21,36.22,95.62,95.62,0,0,1-22.52,21.73,40.47,40.47,0,0,1-18.22,6.89,28,28,0,0,1-10.46-1A3.53,3.53,0,0,1,1328.93,377.57Z"/><path class="cls-1" d="M751.21,639.09a38.94,38.94,0,0,1-27.37-10.15,36.75,36.75,0,0,1-10.09-15.28,47.8,47.8,0,0,1,0-33.07A38.18,38.18,0,0,1,724,565.06a4.17,4.17,0,0,1,3.42-1.27c1.06.09,2.15.05,3.22.06a13.62,13.62,0,0,0,4.88-.91c2.58-.91,5.19-1.75,7.81-2.53a29.61,29.61,0,0,0,6.6-3.14c4.26-2.51,4.26-2.57,9.1-1.56a37.69,37.69,0,0,1,24.6,16.66,43.33,43.33,0,0,1,6.7,19.21,46.93,46.93,0,0,1-3,23A37.66,37.66,0,0,1,766.65,636,36.92,36.92,0,0,1,751.21,639.09Z"/><path class="cls-1" d="M1568.31,590c-.42-3-.37-30,0-32.42a9.76,9.76,0,0,1,1.6-.24c5.78,0,11.56,0,17.34,0a37,37,0,0,1,9,1.3,17.94,17.94,0,0,1,7.07,3.44,13.43,13.43,0,0,1,4.78,7.88,19.08,19.08,0,0,1,.06,7.3c-1,5.34-4.4,8.6-9.22,10.58a34,34,0,0,1-12.35,2.35c-5.58.11-11.16,0-16.75,0A14.32,14.32,0,0,1,1568.31,590Z"/></svg>