<svg id="Layer_1" data-name="Layer 1" xmlns="http://www.w3.org/2000/svg" viewBox="0 0 758.01 643.53"><title>favicon</title><path d="M330.42,377.86c1.45-.43,2.39-.68,3.3-1q20.76-6.94,41.51-13.89c15.89-5.3,31.8-10.55,47.68-15.87,11.42-3.82,22.82-7.72,34.24-11.58q15-5.09,30.06-10.15c6-2,12.11-3.94,18.11-6.06,3.51-1.23,6.88-2.83,10.35-4.17a41.94,41.94,0,0,1,11.63-3,37.56,37.56,0,0,1,6.45-.05,9.89,9.89,0,0,1,8.93,8.07c1.12,5.05-.39,8.45-4.92,11.08a177.44,177.44,0,0,1-17.36,8.63q-24.06,10.62-48.09,21.3Q446,372.86,419.63,384.46,400.28,393,381,401.62c-8.95,4-17.93,7.89-26.88,11.86q-15.85,7-31.68,14.09c-3.49,1.55-7,3.17-10.5,4.59a6.45,6.45,0,0,0-4,4.33c-.26.84-.64,1.65-.89,2.49a145.8,145.8,0,0,1-7.45,19.14c-2.7,6-5.27,12-8,18-2.58,5.61-5.22,11.19-8,16.7-4.18,8.31-8.4,16.6-12.8,24.8-4.9,9.16-10.29,18-16,26.69-4.29,6.44-8.43,13-13.09,19.17-6.3,8.37-12.71,16.65-19.83,24.37a243.82,243.82,0,0,1-23.92,23,187.1,187.1,0,0,1-36.5,24,150.56,150.56,0,0,1-21.89,8.48,146.44,146.44,0,0,1-22.65,5,108.16,108.16,0,0,1-14.94,1,115.22,115.22,0,0,1-20.49-1.39A101.78,101.78,0,0,1,59,641.73c-8.36-3.52-16.17-7.93-22.74-14.31a63.64,63.64,0,0,1-15.14-23.18,62.21,62.21,0,0,1-3.93-25.38,85,85,0,0,1,4.12-22.47A90.25,90.25,0,0,1,31.8,533.8a87.34,87.34,0,0,1,16.34-18.4,13,13,0,0,1,10.68-3,7.86,7.86,0,0,1,6.75,9.12,12.83,12.83,0,0,1-1.81,4.93,48.05,48.05,0,0,0-5,11.58,60.44,60.44,0,0,0-2.46,18.85,50.48,50.48,0,0,0,1.11,9.32,33.82,33.82,0,0,0,7.86,15.23,44.29,44.29,0,0,0,7.92,7,29.52,29.52,0,0,0,15.76,5,66.66,66.66,0,0,0,24-3.2A68.35,68.35,0,0,0,144,569.6a237.41,237.41,0,0,0,22.38-30.54,312.06,312.06,0,0,0,21.3-40.87c1.56-3.6,3.18-7.16,4.76-10.75.22-.49.33-1,.6-1.89a9,9,0,0,0-1.67.38c-12.43,5.76-25.16,10.91-37.38,17.15a47.57,47.57,0,0,1-23.56,5.2A33.76,33.76,0,0,1,117,505.39c-10.4-4.87-16.55-12.95-16.52-24.59,0-10.14,3.83-18.89,12.13-25.3a61.57,61.57,0,0,1,16.71-9.11q14.35-5.2,28.81-10.16,18.61-6.39,37.3-12.61c4.08-1.37,8.21-2.61,12.34-3.84,1.69-.5,3.45-.72,5.15-1.19s3.16-1,4.73-1.58a3.52,3.52,0,0,0,2.31-2.45c1-3,2-5.95,3-8.92q7.73-23.29,15.45-46.57,8.06-24.12,16.17-48.2c3.32-9.83,6.57-19.7,10.12-29.45a367.68,367.68,0,0,1,16-36.93c6.11-12.4,12.76-24.51,20.05-36.25a268.51,268.51,0,0,1,32.64-43c4.63-4.92,9.32-9.8,14.2-14.46a152.55,152.55,0,0,1,25.76-19.44,166.4,166.4,0,0,1,26.91-13.1c3.92-1.52,8-2.6,12-3.87,5.79-1.82,11.61-3.53,17.56-4.8a123.52,123.52,0,0,1,14.78-2.36,34.44,34.44,0,0,1,12.25,1,15.48,15.48,0,0,1,4,1.77,6.31,6.31,0,0,1,3.11,4.46c.71,4.82-.36,9.14-4,12.58A15.4,15.4,0,0,1,458,128.4c-6.89,4.66-13.89,9.19-20.66,14a146.19,146.19,0,0,0-15.18,13,148.66,148.66,0,0,0-23.61,28.39,214,214,0,0,0-12.27,22.76,295.68,295.68,0,0,0-12.56,31.35c-3.58,10.38-6.41,21-9.44,31.52-3.25,11.29-6.68,22.54-10.05,33.79q-3.35,11.13-6.75,22.21c-4.63,15-9.36,29.92-14.52,44.72-.67,1.94-1.35,3.88-2,5.83C330.74,376.41,330.66,376.88,330.42,377.86Z" transform="translate(-17.15 -5.74)"/><path d="M394.91,5.74c9.91.21,18,.38,26.14,1.12,4.87.44,9.77.73,14.63,1.29,6.61.75,13.21,1.64,19.8,2.54,9.32,1.27,18.57,2.92,27.78,4.8q16.42,3.33,32.56,7.8c7.84,2.18,15.69,4.31,23.46,6.68s15.26,5,22.91,7.46q19.74,6.3,39.51,12.49c10.29,3.19,20.66,6.1,31.15,8.56,8.59,2,17.22,3.76,26,4.92,7,.93,14,1.84,21,2.53a142,142,0,0,0,22,.25,104,104,0,0,0,14.3-1.52,40.18,40.18,0,0,0,23-13.28,22.31,22.31,0,0,0,4.09-6.75,33.25,33.25,0,0,1,6.43-10.11c4.68-5.22,12.18-5.66,17.53-2.9a10.91,10.91,0,0,1,5.59,6.52c3.21,10.22,3.47,20.39-.6,30.48a76.13,76.13,0,0,1-20.43,28.7,108.59,108.59,0,0,1-22.23,15.27A157.88,157.88,0,0,1,702.14,124c-5.81,1.74-11.74,3.13-17.66,4.46A205.58,205.58,0,0,1,661.85,132c-3,.33-6,.56-9.07.69a288.28,288.28,0,0,1-30.55-.23c-9-.56-18-1.49-26.89-2.68-10.39-1.38-20.67-3.42-30.9-5.69q-19.8-4.39-39.26-10.11c-7.61-2.23-15.15-4.7-22.73-7q-14.88-4.58-29.78-9.1c-17.33-5.25-34.75-10.23-52.34-14.56-12.54-3.1-25.09-6.2-37.7-9-12.42-2.8-25-4.91-37.62-6.48-9.72-1.21-19.48-2-29.26-2.55a296.71,296.71,0,0,0-34.65.13c-10.38.61-20.68,1.78-30.94,3.41A197.25,197.25,0,0,0,197.1,84.55,225.4,225.4,0,0,0,168,101a171.24,171.24,0,0,0-20.81,16.27A141.22,141.22,0,0,0,122,147.79a113.58,113.58,0,0,0-11.65,25.28,96.31,96.31,0,0,0-4.48,36.81A122.12,122.12,0,0,0,114.4,247a112.06,112.06,0,0,0,19.43,32c10.06,11.49,22.41,19.79,36.46,25.62,3.07,1.27,6.22,2.39,9.35,3.51a62.14,62.14,0,0,1,16.24,8.74,30.38,30.38,0,0,1,10.9,15.3c2.73,8.27,2.1,16.42-.84,24.47a50.9,50.9,0,0,1-15.85,22.22,57.89,57.89,0,0,1-22.82,11.69,50.84,50.84,0,0,1-8.68,1.41A79.24,79.24,0,0,1,124,386.59a114.23,114.23,0,0,1-28.69-16.44,172.49,172.49,0,0,1-23.49-21.7,120.77,120.77,0,0,1-17.39-25,127.27,127.27,0,0,1-10.1-25.95,132.7,132.7,0,0,1-4.24-25.16,146.61,146.61,0,0,1,2.08-34.81,194.72,194.72,0,0,1,6.18-25.68A189.87,189.87,0,0,1,60.3,182.76,314.79,314.79,0,0,1,84.2,144a301.66,301.66,0,0,1,22.61-28.17c3.82-4.21,7.53-8.53,11.53-12.55,4.35-4.36,8.91-8.53,13.52-12.63a246.35,246.35,0,0,1,28.92-22.12,347.51,347.51,0,0,1,52.45-28.23,401.29,401.29,0,0,1,57.2-19.63,396.6,396.6,0,0,1,44.88-9.17c9.2-1.33,18.45-2.33,27.7-3.34,9.54-1,19.13-1.59,28.72-1.86C380.05,6.1,388.37,5.91,394.91,5.74Z" transform="translate(-17.15 -5.74)"/></svg>